<svg width="600" height="400" viewBox="0 0 600 400" fill="none" xmlns="http://www.w3.org/2000/svg">
  <!-- Background -->
  <rect width="600" height="400" fill="#F5F5F5" rx="20"/>
  
  <!-- Person -->
  <path d="M300 150c-22 0-40 18-40 40v100h80V190c0-22-18-40-40-40z" fill="#2C3E50"/>
  <circle cx="300" cy="120" r="30" fill="#2C3E50"/>
  
  <!-- Phone -->
  <rect x="270" y="200" width="40" height="70" rx="5" fill="#FF6B6B"/>
  <rect x="275" y="205" width="30" height="60" rx="3" fill="white"/>
  
  <!-- Dog -->
  <path d="M380 250c-16.6 0-30-13.4-30-30s13.4-30 30-30 30 13.4 30 30-13.4 30-30 30z" fill="#FF6B6B"/>
  <circle cx="370" cy="210" r="5" fill="#2C3E50"/>
  <path d="M390 230c-3 2-6 3-10 3s-7-1-10-3" stroke="#2C3E50" stroke-width="2" stroke-linecap="round"/>
  
  <!-- Hearts -->
  <path d="M350 180l10-10 10 10-10 10z" fill="#FF6B6B" opacity="0.6"/>
  <path d="M330 160l8-8 8 8-8 8z" fill="#FF6B6B" opacity="0.4"/>
  <path d="M370 150l6-6 6 6-6 6z" fill="#FF6B6B" opacity="0.2"/>
</svg> 